<svg width="259" height="65" viewBox="0 0 259 65" fill="none" xmlns="http://www.w3.org/2000/svg">
<rect width="81.016" height="64.4561" fill="#EDC645"/>
<path d="M24.7739 36.5594H25.7508C26.4633 36.5594 27.1684 36.497 27.8589 36.3794C28.8945 31.8879 32.1521 28.2338 36.4085 26.6509H30.5325C27.5614 29.1225 25.4644 32.6041 24.7703 36.5631L24.7739 36.5594Z" fill="#002D62"/>
<path d="M43.8194 28.781C45.4059 33.0374 49.0564 36.295 53.5479 37.3306H53.5516C53.6691 38.0248 53.7316 38.7299 53.7316 39.4424V40.4192C49.7726 39.7251 46.291 37.6281 43.8194 34.657V28.781Z" fill="#002D62"/>
<path d="M57.588 11.4612H57.5874L57.588 11.4576V11.4612Z" fill="#002D62"/>
<path d="M57.5874 11.4612H56.6111C55.8986 11.4612 55.1935 11.5237 54.4994 11.6412C53.4638 16.1327 50.2062 19.7832 45.9497 21.3697H51.8258C54.796 18.8989 56.8926 15.4187 57.5874 11.4612Z" fill="#002D62"/>
<path fill-rule="evenodd" clip-rule="evenodd" d="M24.524 7.17908V8.57832C24.524 14.4213 27.5502 19.5665 32.1188 22.5376H24.3514C15.1774 22.5376 7.71484 30.0002 7.71484 39.1742C7.71484 40.0005 8.38325 40.6689 9.20957 40.6689H25.7507C31.5937 40.6689 36.7389 37.6428 39.71 33.0741V40.8415C39.71 50.0155 47.1726 57.4781 56.3466 57.4781C57.1729 57.4781 57.8413 56.8097 57.8413 55.9834V39.4423C57.8413 33.5993 54.8151 28.4541 50.2465 25.483H58.0139C67.1879 25.483 74.6505 18.0204 74.6505 8.84641C74.6505 8.02009 73.9821 7.35169 73.1558 7.35169H56.6147C50.7717 7.35169 45.6264 10.3779 42.6554 14.9465V7.17908C42.6554 7.01941 42.6598 7.33768 42.6554 7.17908L39.6644 7.17906C39.6699 7.33754 39.6659 7.01929 39.6659 7.17908V22.1447C32.8423 21.3991 27.5135 15.6002 27.5135 8.57832V7.17908H24.524ZM10.7851 37.6832H25.7507C32.7726 37.6832 38.5715 32.3543 39.317 25.5307H24.3514C17.3295 25.5307 11.5306 30.8596 10.7851 37.6832ZM54.8555 54.4079V39.4423C54.8555 32.4204 49.5267 26.6215 42.7031 25.876V40.8415C42.7031 47.8634 48.0319 53.6624 54.8555 54.4079ZM43.0483 22.4936H58.0139C65.0358 22.4936 70.8347 17.1647 71.5802 10.3411H56.6147C49.5928 10.3411 43.7938 15.67 43.0483 22.4936Z" fill="#002D62"/>
<path d="M20.3153 21.8766C18.8867 22.2108 17.5279 22.7176 16.2535 23.3713C11.1634 20.5214 7.71484 15.0787 7.71484 8.84274C7.71484 8.01642 8.38325 7.34802 9.20957 7.34802H23.4002V8.57832C23.4002 9.1696 23.4296 9.7572 23.4884 10.3375H10.7851C11.3837 15.7949 15.2142 20.2937 20.3153 21.8766Z" fill="#002D62"/>
<path d="M66.1081 24.6457C64.8337 25.2994 63.4749 25.8062 62.0463 26.1404C67.1474 27.7233 70.9779 32.2221 71.5765 37.6795H58.8732C58.932 38.2598 58.9613 38.8474 58.9613 39.4387V40.669H73.152C73.9783 40.669 74.6467 40.0006 74.6467 39.1743C74.6467 32.9383 71.1982 27.4956 66.1081 24.6457Z" fill="#002D62"/>
<path d="M27.5133 54.4042C32.9707 53.8056 37.4696 49.9752 39.0524 44.874C39.3866 46.3026 39.8934 47.6615 40.5471 48.9358C37.6973 54.026 32.2546 57.4745 26.0186 57.4745C25.1923 57.4745 24.5239 56.8061 24.5239 55.9798V41.7891H25.7542C26.3454 41.7891 26.9331 41.7597 27.5133 41.7009V54.4042Z" fill="#002D62"/>
<path d="M28.6337 7.6014V8.57829C28.6337 9.29077 28.6961 9.99589 28.8136 10.6863C33.3051 11.722 36.9593 14.9795 38.5422 19.236V13.3599C36.0706 10.3889 32.589 8.29184 28.63 7.59773L28.6337 7.6014Z" fill="#002D62"/>
<path d="M24.7739 36.5594H25.7508C26.4633 36.5594 27.1684 36.497 27.8589 36.3794C28.8945 31.8879 32.1521 28.2338 36.4085 26.6509H30.5325C27.5614 29.1225 25.4644 32.6041 24.7703 36.5631L24.7739 36.5594Z" fill="#002D62"/>
<path d="M43.8194 28.781C45.4059 33.0374 49.0564 36.295 53.5479 37.3306H53.5516C53.6691 38.0248 53.7316 38.7299 53.7316 39.4424V40.4192C49.7726 39.7251 46.291 37.6281 43.8194 34.657V28.781Z" fill="#002D62"/>
<path d="M57.588 11.4612H57.5874L57.588 11.4576V11.4612Z" fill="#002D62"/>
<path d="M57.5874 11.4612H56.6111C55.8986 11.4612 55.1935 11.5237 54.4994 11.6412C53.4638 16.1327 50.2062 19.7832 45.9497 21.3697H51.8258C54.796 18.8989 56.8926 15.4187 57.5874 11.4612Z" fill="#002D62"/>
<path fill-rule="evenodd" clip-rule="evenodd" d="M24.524 7.17908V8.57832C24.524 14.4213 27.5502 19.5665 32.1188 22.5376H24.3514C15.1774 22.5376 7.71484 30.0002 7.71484 39.1742C7.71484 40.0005 8.38325 40.6689 9.20957 40.6689H25.7507C31.5937 40.6689 36.7389 37.6428 39.71 33.0741V40.8415C39.71 50.0155 47.1726 57.4781 56.3466 57.4781C57.1729 57.4781 57.8413 56.8097 57.8413 55.9834V39.4423C57.8413 33.5993 54.8151 28.4541 50.2465 25.483H58.0139C67.1879 25.483 74.6505 18.0204 74.6505 8.84641C74.6505 8.02009 73.9821 7.35169 73.1558 7.35169H56.6147C50.7717 7.35169 45.6264 10.3779 42.6554 14.9465V7.17908C42.6554 7.01941 42.6598 7.33768 42.6554 7.17908L39.6644 7.17906C39.6699 7.33754 39.6659 7.01929 39.6659 7.17908V22.1447C32.8423 21.3991 27.5135 15.6002 27.5135 8.57832V7.17908H24.524ZM10.7851 37.6832H25.7507C32.7726 37.6832 38.5715 32.3543 39.317 25.5307H24.3514C17.3295 25.5307 11.5306 30.8596 10.7851 37.6832ZM54.8555 54.4079V39.4423C54.8555 32.4204 49.5267 26.6215 42.7031 25.876V40.8415C42.7031 47.8634 48.0319 53.6624 54.8555 54.4079ZM43.0483 22.4936H58.0139C65.0358 22.4936 70.8347 17.1647 71.5802 10.3411H56.6147C49.5928 10.3411 43.7938 15.67 43.0483 22.4936Z" fill="#002D62"/>
<path d="M20.3153 21.8766C18.8867 22.2108 17.5279 22.7176 16.2535 23.3713C11.1634 20.5214 7.71484 15.0787 7.71484 8.84274C7.71484 8.01642 8.38325 7.34802 9.20957 7.34802H23.4002V8.57832C23.4002 9.1696 23.4296 9.7572 23.4884 10.3375H10.7851C11.3837 15.7949 15.2142 20.2937 20.3153 21.8766Z" fill="#002D62"/>
<path d="M66.1081 24.6457C64.8337 25.2994 63.4749 25.8062 62.0463 26.1404C67.1474 27.7233 70.9779 32.2221 71.5765 37.6795H58.8732C58.932 38.2598 58.9613 38.8474 58.9613 39.4387V40.669H73.152C73.9783 40.669 74.6467 40.0006 74.6467 39.1743C74.6467 32.9383 71.1982 27.4956 66.1081 24.6457Z" fill="#002D62"/>
<path d="M27.5133 54.4042C32.9707 53.8056 37.4696 49.9752 39.0524 44.874C39.3866 46.3026 39.8934 47.6615 40.5471 48.9358C37.6973 54.026 32.2546 57.4745 26.0186 57.4745C25.1923 57.4745 24.5239 56.8061 24.5239 55.9798V41.7891H25.7542C26.3454 41.7891 26.9331 41.7597 27.5133 41.7009V54.4042Z" fill="#002D62"/>
<path d="M28.6337 7.6014V8.57829C28.6337 9.29077 28.6961 9.99589 28.8136 10.6863C33.3051 11.722 36.9593 14.9795 38.5422 19.236V13.3599C36.0706 10.3889 32.589 8.29184 28.63 7.59773L28.6337 7.6014Z" fill="#002D62"/>
<path d="M88.9902 57.9433H87.3854V49.4434H88.9902V57.9433Z" fill="#002D62"/>
<path d="M99.848 57.9433H98.2788V49.4434H99.9669L104.663 56.4097H104.044V49.4434H105.614V57.9433H103.926L99.2417 50.977H99.848V57.9433Z" fill="#002D62"/>
<path d="M116.513 57.9433H114.908V49.4434H116.513V57.9433Z" fill="#002D62"/>
<path d="M129.617 57.9433H128.012V50.6917H129.617V57.9433ZM132.28 50.8105H125.349V49.4434H132.28V50.8105Z" fill="#002D62"/>
<path d="M142.735 57.9433H141.13V49.4434H142.735V57.9433Z" fill="#002D62"/>
<path d="M158.276 56.0769H153.236V54.7217H158.276V56.0769ZM160.012 57.9433H158.288L155.506 50.5728H155.982L153.2 57.9433H151.536L154.888 49.4434H156.66L160.012 57.9433Z" fill="#002D62"/>
<path d="M171.191 57.9433H169.586V50.6917H171.191V57.9433ZM173.854 50.8105H166.923V49.4434H173.854V50.8105Z" fill="#002D62"/>
<path d="M184.309 57.9433H182.704V49.4434H184.309V57.9433Z" fill="#002D62"/>
<path d="M198.091 57.9433H196.462L193.11 49.4434H194.857L197.52 56.695H197.08L199.743 49.4434H201.431L198.091 57.9433Z" fill="#002D62"/>
<path d="M216.217 57.9433H210.238V49.4434H216.217V50.7986H211.843V56.5881H216.217V57.9433ZM215.991 54.3175H211.724V52.9622H215.991V54.3175Z" fill="#002D62"/>
<path d="M94.7326 7.00625C96.5755 7.00625 98.0089 7.37028 99.0327 8.09833C100.034 8.82639 100.557 9.87296 100.557 11.1926C100.557 12.1936 100.284 12.9899 99.738 13.5815C99.192 14.1958 98.4184 14.5826 97.4173 14.7646C98.6004 14.9238 99.5105 15.3106 100.148 15.9022C100.785 16.5164 101.126 17.3583 101.126 18.4503C101.126 19.8609 100.58 20.953 99.5332 21.7493C98.4639 22.5456 96.9623 22.9324 95.0284 22.9324H88.6807V7.00625H94.7326ZM92.0935 13.5587H94.8237C95.5517 13.5587 96.1205 13.3995 96.53 13.0354C96.9396 12.6942 97.1443 12.2164 97.1443 11.6248C97.1443 11.0333 96.9396 10.5783 96.53 10.2142C96.1205 9.87296 95.5517 9.69095 94.8237 9.69095H92.0935V13.5587ZM92.0935 20.225H95.0512C95.8702 20.225 96.4845 20.0657 96.9396 19.7017C97.3946 19.3604 97.6221 18.8826 97.6221 18.2456C97.6221 17.6085 97.3946 17.108 96.9396 16.744C96.4845 16.3799 95.8475 16.1979 95.0512 16.1979H92.0935V20.225Z" fill="#002D62"/>
<path d="M113.013 11.2381V22.9324H110.169L109.874 21.5218C109.464 22.0223 108.986 22.3864 108.44 22.6594C107.894 22.9324 107.212 23.0689 106.438 23.0689C105.073 23.0689 103.958 22.6594 103.094 21.8176C102.229 20.9758 101.797 19.5652 101.797 17.5858V11.2381H105.005V17.199C105.005 18.2683 105.187 19.0646 105.551 19.6107C105.915 20.1567 106.506 20.407 107.28 20.407C108.076 20.407 108.69 20.1112 109.145 19.5197C109.578 18.9281 109.805 18.0863 109.805 16.9942V11.2381H113.013Z" fill="#002D62"/>
<path d="M116.722 19.0419C116.768 19.5652 117.018 19.9747 117.473 20.2932C117.928 20.6117 118.497 20.771 119.225 20.771C119.908 20.771 120.431 20.68 120.841 20.4525C121.227 20.225 121.432 19.9064 121.432 19.4969C121.432 19.2011 121.341 18.9736 121.159 18.8144C120.977 18.6779 120.704 18.5641 120.385 18.4958C120.044 18.4276 119.498 18.3366 118.747 18.2456C117.701 18.1091 116.859 17.9498 116.176 17.7223C115.494 17.5175 114.948 17.1762 114.538 16.7212C114.129 16.2662 113.924 15.6746 113.924 14.9011C113.924 14.1503 114.129 13.4905 114.538 12.8989C114.948 12.3074 115.539 11.8524 116.313 11.5338C117.064 11.2153 117.928 11.056 118.929 11.056C120.522 11.0788 121.796 11.4201 122.774 12.0799C123.753 12.7624 124.276 13.6725 124.367 14.8556H121.318C121.273 14.4233 121.023 14.0593 120.613 13.7862C120.203 13.5132 119.657 13.354 119.02 13.354C118.406 13.354 117.906 13.4677 117.542 13.6952C117.178 13.9228 116.996 14.2413 116.996 14.6053C116.996 14.8783 117.087 15.0831 117.291 15.2196C117.473 15.3561 117.746 15.4699 118.065 15.5154C118.383 15.5836 118.907 15.6519 119.657 15.7201C121.227 15.9022 122.433 16.2434 123.275 16.744C124.117 17.2445 124.549 18.0863 124.549 19.2694C124.549 20.043 124.322 20.7028 123.866 21.2715C123.411 21.8631 122.797 22.2954 122.001 22.6139C121.205 22.9324 120.294 23.0689 119.248 23.0689C117.61 23.0689 116.29 22.7276 115.289 21.9996C114.265 21.2715 113.719 20.2932 113.674 19.0419H116.722Z" fill="#002D62"/>
<path d="M128.19 6.89249C128.531 7.23377 128.713 7.66605 128.713 8.16659C128.713 8.68987 128.531 9.12216 128.19 9.46343C127.826 9.82746 127.394 9.98672 126.871 9.98672C126.325 9.98672 125.892 9.82746 125.528 9.46343C125.164 9.12216 125.005 8.68987 125.005 8.16659C125.005 7.66605 125.164 7.23377 125.528 6.89249C125.892 6.55122 126.325 6.36921 126.871 6.36921C127.394 6.36921 127.826 6.55122 128.19 6.89249ZM125.255 11.2381H128.463V22.9324H125.255V11.2381Z" fill="#002D62"/>
<path d="M139.64 12.3756C140.505 13.2402 140.96 14.6281 140.96 16.5847V22.9324H137.752V16.7667C137.752 14.7646 136.955 13.7407 135.386 13.7407C134.544 13.7407 133.907 14.0365 133.452 14.5826C132.997 15.1513 132.769 15.9477 132.769 16.9487V22.9324H129.561V11.2381H132.36L132.655 12.6942C133.065 12.1936 133.543 11.8069 134.134 11.5338C134.703 11.2608 135.408 11.1016 136.273 11.1016C137.638 11.1016 138.753 11.5338 139.64 12.3756Z" fill="#002D62"/>
<path d="M142.117 13.9455C142.617 13.0354 143.3 12.3529 144.187 11.8524C145.074 11.3518 146.098 11.1016 147.281 11.1016C148.464 11.1016 149.488 11.3518 150.398 11.8069C151.308 12.2619 152.014 12.9217 152.514 13.7635C153.015 14.6053 153.288 15.5836 153.31 16.7212C153.31 17.1307 153.265 17.4948 153.219 17.8133H144.733V17.9043C144.801 18.7689 145.074 19.4287 145.552 19.9064C146.007 20.407 146.667 20.6345 147.486 20.6345C148.123 20.6345 148.669 20.498 149.101 20.225C149.534 19.9519 149.829 19.5197 149.966 18.9736H153.128C152.992 19.7472 152.696 20.4525 152.241 21.0668C151.763 21.7038 151.149 22.1816 150.375 22.5456C149.602 22.9097 148.715 23.0689 147.713 23.0689C146.394 23.0689 145.279 22.8414 144.323 22.3409C143.368 21.8631 142.64 21.1805 142.139 20.2705C141.639 19.3604 141.388 18.3138 141.388 17.108C141.388 15.9022 141.616 14.8556 142.117 13.9455ZM150.102 15.7201C149.989 15.0148 149.693 14.4688 149.215 14.082C148.737 13.6952 148.146 13.4905 147.418 13.4905C146.712 13.4905 146.121 13.6952 145.643 14.1048C145.165 14.5143 144.892 15.0376 144.801 15.7201H150.102Z" fill="#002D62"/>
<path d="M156.453 19.0419C156.499 19.5652 156.749 19.9747 157.204 20.2932C157.659 20.6117 158.228 20.771 158.956 20.771C159.639 20.771 160.162 20.68 160.572 20.4525C160.958 20.225 161.163 19.9064 161.163 19.4969C161.163 19.2011 161.072 18.9736 160.89 18.8144C160.708 18.6779 160.435 18.5641 160.116 18.4958C159.775 18.4276 159.229 18.3366 158.478 18.2456C157.432 18.1091 156.59 17.9498 155.907 17.7223C155.225 17.5175 154.679 17.1762 154.269 16.7212C153.86 16.2662 153.655 15.6746 153.655 14.9011C153.655 14.1503 153.86 13.4905 154.269 12.8989C154.679 12.3074 155.27 11.8524 156.044 11.5338C156.795 11.2153 157.659 11.056 158.66 11.056C160.253 11.0788 161.527 11.4201 162.505 12.0799C163.484 12.7624 164.007 13.6725 164.098 14.8556H161.049C161.004 14.4233 160.754 14.0593 160.344 13.7862C159.934 13.5132 159.388 13.354 158.751 13.354C158.137 13.354 157.637 13.4677 157.273 13.6952C156.908 13.9228 156.726 14.2413 156.726 14.6053C156.726 14.8783 156.817 15.0831 157.022 15.2196C157.204 15.3561 157.477 15.4699 157.796 15.5154C158.114 15.5836 158.638 15.6519 159.388 15.7201C160.958 15.9022 162.164 16.2434 163.006 16.744C163.848 17.2445 164.28 18.0863 164.28 19.2694C164.28 20.043 164.052 20.7028 163.597 21.2715C163.142 21.8631 162.528 22.2954 161.732 22.6139C160.936 22.9324 160.025 23.0689 158.979 23.0689C157.341 23.0689 156.021 22.7276 155.02 21.9996C153.996 21.2715 153.45 20.2932 153.405 19.0419H156.453Z" fill="#002D62"/>
<path d="M167.38 19.0419C167.426 19.5652 167.676 19.9747 168.131 20.2932C168.586 20.6117 169.155 20.771 169.883 20.771C170.566 20.771 171.089 20.68 171.499 20.4525C171.885 20.225 172.09 19.9064 172.09 19.4969C172.09 19.2011 171.999 18.9736 171.817 18.8144C171.635 18.6779 171.362 18.5641 171.043 18.4958C170.702 18.4276 170.156 18.3366 169.405 18.2456C168.359 18.1091 167.517 17.9498 166.834 17.7223C166.152 17.5175 165.606 17.1762 165.196 16.7212C164.787 16.2662 164.582 15.6746 164.582 14.9011C164.582 14.1503 164.787 13.4905 165.196 12.8989C165.606 12.3074 166.197 11.8524 166.971 11.5338C167.722 11.2153 168.586 11.056 169.587 11.056C171.18 11.0788 172.454 11.4201 173.432 12.0799C174.411 12.7624 174.934 13.6725 175.025 14.8556H171.976C171.931 14.4233 171.681 14.0593 171.271 13.7862C170.861 13.5132 170.315 13.354 169.678 13.354C169.064 13.354 168.564 13.4677 168.2 13.6952C167.835 13.9228 167.653 14.2413 167.653 14.6053C167.653 14.8783 167.744 15.0831 167.949 15.2196C168.131 15.3561 168.404 15.4699 168.723 15.5154C169.041 15.5836 169.565 15.6519 170.315 15.7201C171.885 15.9022 173.091 16.2434 173.933 16.744C174.775 17.2445 175.207 18.0863 175.207 19.2694C175.207 20.043 174.98 20.7028 174.524 21.2715C174.069 21.8631 173.455 22.2954 172.659 22.6139C171.863 22.9324 170.952 23.0689 169.906 23.0689C168.268 23.0689 166.948 22.7276 165.947 21.9996C164.923 21.2715 164.377 20.2932 164.332 19.0419H167.38Z" fill="#002D62"/>
<path d="M181.17 13.9455H179.236V11.2381H181.17V7.96182H184.378V11.2381H187.04V13.9455H184.378V19.0646C184.378 19.4742 184.446 19.7699 184.628 19.9519C184.81 20.134 185.106 20.225 185.515 20.225H187.176V22.9324H184.514C182.285 22.9324 181.17 21.8176 181.17 19.5879V13.9455Z" fill="#002D62"/>
<path d="M197.447 12.3756C198.335 13.2402 198.79 14.6281 198.79 16.5847V22.9324H195.582V16.7212C195.582 15.7656 195.377 15.0148 194.99 14.5143C194.581 14.0138 193.989 13.7407 193.216 13.7407C192.397 13.7407 191.737 14.0365 191.282 14.5826C190.827 15.1513 190.599 15.9249 190.599 16.926V22.9324H187.391V7.00625H190.599V12.6714C191.464 11.6248 192.601 11.1016 194.057 11.1016C195.423 11.1016 196.56 11.5338 197.447 12.3756Z" fill="#002D62"/>
<path d="M199.947 13.9455C200.447 13.0354 201.13 12.3529 202.017 11.8524C202.904 11.3518 203.928 11.1016 205.111 11.1016C206.294 11.1016 207.318 11.3518 208.228 11.8069C209.138 12.2619 209.844 12.9217 210.344 13.7635C210.845 14.6053 211.118 15.5836 211.14 16.7212C211.14 17.1307 211.095 17.4948 211.049 17.8133H202.563V17.9043C202.631 18.7689 202.904 19.4287 203.382 19.9064C203.837 20.407 204.497 20.6345 205.316 20.6345C205.953 20.6345 206.499 20.498 206.931 20.225C207.364 19.9519 207.659 19.5197 207.796 18.9736H210.958C210.822 19.7472 210.526 20.4525 210.071 21.0668C209.593 21.7038 208.979 22.1816 208.205 22.5456C207.432 22.9097 206.545 23.0689 205.544 23.0689C204.224 23.0689 203.109 22.8414 202.154 22.3409C201.198 21.8631 200.47 21.1805 199.969 20.2705C199.469 19.3604 199.219 18.3138 199.219 17.108C199.219 15.9022 199.446 14.8556 199.947 13.9455ZM207.932 15.7201C207.819 15.0148 207.523 14.4688 207.045 14.082C206.567 13.6952 205.976 13.4905 205.248 13.4905C204.542 13.4905 203.951 13.6952 203.473 14.1048C202.995 14.5143 202.722 15.0376 202.631 15.7201H207.932Z" fill="#002D62"/>
<path d="M215.352 7.00625L218.878 6.9835L221.813 18.6323L224.93 7.00625H228.002L231.028 18.6323L234.031 7.00625H237.489L233.075 22.9324H229.139L226.386 12.3529L223.702 22.9324H219.766L215.352 7.00625Z" fill="#002D62"/>
<path d="M247.966 20.225V22.9324H246.328C244.849 22.9324 244.121 22.2954 244.167 21.0213C243.734 21.7038 243.211 22.2044 242.597 22.5456C241.96 22.9097 241.209 23.0689 240.344 23.0689C239.025 23.0689 237.978 22.7731 237.182 22.1816C236.386 21.5901 235.999 20.7255 235.999 19.6334C235.999 18.4048 236.454 17.4493 237.364 16.7667C238.274 16.0842 239.616 15.7429 241.368 15.7429H243.689V15.1741C243.689 14.6508 243.484 14.2413 243.097 13.9228C242.688 13.6042 242.165 13.445 241.505 13.445C240.913 13.445 240.413 13.5815 240.049 13.8317C239.662 14.1048 239.434 14.446 239.366 14.8783H236.272C236.363 13.6952 236.909 12.7624 237.865 12.1026C238.82 11.4428 240.071 11.1016 241.664 11.1016C243.302 11.1016 244.576 11.4656 245.486 12.1936C246.396 12.9217 246.851 13.991 246.851 15.3561V19.4742C246.851 19.7699 246.897 19.9747 247.033 20.0657C247.147 20.1795 247.329 20.225 247.602 20.225H247.966ZM243.689 17.8815H241.346C240.663 17.8815 240.14 18.0181 239.776 18.2911C239.412 18.5641 239.23 18.9281 239.23 19.4059C239.23 19.8154 239.366 20.1567 239.685 20.3842C240.003 20.6345 240.413 20.7483 240.959 20.7483C241.778 20.7483 242.438 20.5207 242.938 20.043C243.416 19.5652 243.666 18.9281 243.689 18.1091V17.8815Z" fill="#002D62"/>
<path d="M249.945 11.2381L252.789 19.6334L255.565 11.2381H259L253.813 24.5933C253.54 25.3213 253.267 25.8674 253.039 26.2769C252.789 26.6864 252.47 26.9822 252.106 27.187C251.742 27.3917 251.265 27.4827 250.673 27.4827H247.556V24.7753H249.331C249.74 24.7753 250.036 24.707 250.218 24.5705C250.4 24.434 250.559 24.1838 250.741 23.7742L251.037 23.0007L246.532 11.2381H249.945Z" fill="#002D62"/>
<path d="M87.4066 43.4282L93.231 27.5021H97.3263L103.105 43.4282H99.4422L98.2137 39.9472H92.1617L90.9331 43.4282H87.4066ZM93.0718 37.1943H97.2808L95.1649 31.1423L93.0718 37.1943Z" fill="#002D62"/>
<path d="M103.179 27.5021H106.387V43.4282H103.179V27.5021Z" fill="#002D62"/>
<path d="M107.485 27.5021H110.693V43.4282H107.485V27.5021Z" fill="#002D62"/>
<path d="M123.303 40.7208V43.4282H121.665C120.186 43.4282 119.458 42.7912 119.504 41.5171C119.071 42.1996 118.548 42.7002 117.934 43.0414C117.297 43.4055 116.546 43.5647 115.681 43.5647C114.362 43.5647 113.315 43.269 112.519 42.6774C111.723 42.0859 111.336 41.2213 111.336 40.1292C111.336 38.9006 111.791 37.9451 112.701 37.2625C113.611 36.58 114.953 36.2387 116.705 36.2387H119.026V35.6699C119.026 35.1466 118.821 34.7371 118.434 34.4186C118.025 34.1 117.502 33.9408 116.842 33.9408C116.25 33.9408 115.75 34.0773 115.386 34.3276C114.999 34.6006 114.771 34.9419 114.703 35.3741H111.609C111.7 34.191 112.246 33.2582 113.201 32.5984C114.157 31.9386 115.408 31.5974 117.001 31.5974C118.639 31.5974 119.913 31.9614 120.823 32.6894C121.733 33.4175 122.188 34.4868 122.188 35.8519V39.97C122.188 40.2657 122.234 40.4705 122.37 40.5615C122.484 40.6753 122.666 40.7208 122.939 40.7208H123.303ZM119.026 38.3774H116.682C116 38.3774 115.477 38.5139 115.113 38.7869C114.749 39.0599 114.567 39.4239 114.567 39.9017C114.567 40.3112 114.703 40.6525 115.022 40.88C115.34 41.1303 115.75 41.2441 116.296 41.2441C117.115 41.2441 117.775 41.0165 118.275 40.5388C118.753 40.061 119.003 39.4239 119.026 38.6049V38.3774Z" fill="#002D62"/>
<path d="M134.919 40.7208V43.4282H133.281C131.802 43.4282 131.074 42.7912 131.119 41.5171C130.687 42.1996 130.164 42.7002 129.55 43.0414C128.913 43.4055 128.162 43.5647 127.297 43.5647C125.978 43.5647 124.931 43.269 124.135 42.6774C123.338 42.0859 122.952 41.2213 122.952 40.1292C122.952 38.9006 123.407 37.9451 124.317 37.2625C125.227 36.58 126.569 36.2387 128.321 36.2387H130.642V35.6699C130.642 35.1466 130.437 34.7371 130.05 34.4186C129.641 34.1 129.117 33.9408 128.458 33.9408C127.866 33.9408 127.365 34.0773 127.001 34.3276C126.615 34.6006 126.387 34.9419 126.319 35.3741H123.225C123.316 34.191 123.862 33.2582 124.817 32.5984C125.773 31.9386 127.024 31.5974 128.617 31.5974C130.255 31.5974 131.529 31.9614 132.439 32.6894C133.349 33.4175 133.804 34.4868 133.804 35.8519V39.97C133.804 40.2657 133.85 40.4705 133.986 40.5615C134.1 40.6753 134.282 40.7208 134.555 40.7208H134.919ZM130.642 38.3774H128.298C127.616 38.3774 127.092 38.5139 126.728 38.7869C126.364 39.0599 126.182 39.4239 126.182 39.9017C126.182 40.3112 126.319 40.6525 126.637 40.88C126.956 41.1303 127.365 41.2441 127.911 41.2441C128.731 41.2441 129.39 41.0165 129.891 40.5388C130.369 40.061 130.619 39.4239 130.642 38.6049V38.3774Z" fill="#002D62"/>
<path d="M145.079 32.8715C145.966 33.736 146.421 35.1239 146.421 37.0805V43.4282H143.213V37.217C143.213 36.2614 143.008 35.5106 142.622 35.0101C142.212 34.5096 141.62 34.2366 140.847 34.2366C140.028 34.2366 139.368 34.5323 138.913 35.0784C138.458 35.6472 138.23 36.4207 138.23 37.4218V43.4282H135.022V27.5021H138.23V33.1672C139.095 32.1206 140.233 31.5974 141.689 31.5974C143.054 31.5974 144.191 32.0296 145.079 32.8715Z" fill="#002D62"/>
<path d="M150.901 27.5021L154.427 27.4793L157.362 39.1282L160.479 27.5021H163.551L166.577 39.1282L169.58 27.5021H173.038L168.624 43.4282H164.688L161.935 32.8487L159.25 43.4282H155.314L150.901 27.5021Z" fill="#002D62"/>
<path d="M183.515 40.7208V43.4282H181.877C180.398 43.4282 179.67 42.7912 179.716 41.5171C179.283 42.1996 178.76 42.7002 178.146 43.0414C177.509 43.4055 176.758 43.5647 175.893 43.5647C174.574 43.5647 173.527 43.269 172.731 42.6774C171.935 42.0859 171.548 41.2213 171.548 40.1292C171.548 38.9006 172.003 37.9451 172.913 37.2625C173.823 36.58 175.165 36.2387 176.917 36.2387H179.238V35.6699C179.238 35.1466 179.033 34.7371 178.646 34.4186C178.237 34.1 177.713 33.9408 177.054 33.9408C176.462 33.9408 175.962 34.0773 175.598 34.3276C175.211 34.6006 174.983 34.9419 174.915 35.3741H171.821C171.912 34.191 172.458 33.2582 173.413 32.5984C174.369 31.9386 175.62 31.5974 177.213 31.5974C178.851 31.5974 180.125 31.9614 181.035 32.6894C181.945 33.4175 182.4 34.4868 182.4 35.8519V39.97C182.4 40.2657 182.446 40.4705 182.582 40.5615C182.696 40.6753 182.878 40.7208 183.151 40.7208H183.515ZM179.238 38.3774H176.894C176.212 38.3774 175.689 38.5139 175.325 38.7869C174.96 39.0599 174.778 39.4239 174.778 39.9017C174.778 40.3112 174.915 40.6525 175.234 40.88C175.552 41.1303 175.962 41.2441 176.508 41.2441C177.327 41.2441 177.986 41.0165 178.487 40.5388C178.965 40.061 179.215 39.4239 179.238 38.6049V38.3774Z" fill="#002D62"/>
<path d="M193.698 32.8715C194.562 33.736 195.017 35.1239 195.017 37.0805V43.4282H191.809V37.2625C191.809 35.2604 191.013 34.2366 189.443 34.2366C188.601 34.2366 187.964 34.5323 187.509 35.0784C187.054 35.6472 186.827 36.4435 186.827 37.4445V43.4282H183.619V31.7339H186.417L186.713 33.19C187.122 32.6894 187.6 32.3027 188.192 32.0296C188.76 31.7566 189.466 31.5974 190.33 31.5974C191.695 31.5974 192.81 32.0296 193.698 32.8715Z" fill="#002D62"/>
<path d="M196.652 34.4413H194.718V31.7339H196.652V28.4576H199.86V31.7339H202.522V34.4413H199.86V39.5604C199.86 39.97 199.928 40.2657 200.11 40.4478C200.292 40.6298 200.588 40.7208 200.997 40.7208H202.658V43.4282H199.996C197.767 43.4282 196.652 42.3134 196.652 40.0837V34.4413Z" fill="#002D62"/>
<path d="M205.489 39.5377C205.535 40.061 205.785 40.4705 206.24 40.789C206.695 41.1076 207.264 41.2668 207.992 41.2668C208.675 41.2668 209.198 41.1758 209.608 40.9483C209.994 40.7208 210.199 40.4023 210.199 39.9927C210.199 39.697 210.108 39.4694 209.926 39.3102C209.744 39.1737 209.471 39.0599 209.153 38.9916C208.811 38.9234 208.265 38.8324 207.514 38.7414C206.468 38.6049 205.626 38.4456 204.943 38.2181C204.261 38.0133 203.715 37.6721 203.305 37.217C202.896 36.762 202.691 36.1704 202.691 35.3969C202.691 34.6461 202.896 33.9863 203.305 33.3947C203.715 32.8032 204.306 32.3482 205.08 32.0296C205.831 31.7111 206.695 31.5519 207.696 31.5519C209.289 31.5746 210.563 31.9159 211.541 32.5757C212.52 33.2582 213.043 34.1683 213.134 35.3514H210.085C210.04 34.9191 209.79 34.5551 209.38 34.2821C208.97 34.009 208.424 33.8498 207.787 33.8498C207.173 33.8498 206.673 33.9635 206.309 34.191C205.945 34.4186 205.762 34.7371 205.762 35.1011C205.762 35.3741 205.854 35.5789 206.058 35.7154C206.24 35.8519 206.513 35.9657 206.832 36.0112C207.15 36.0794 207.674 36.1477 208.424 36.2159C209.994 36.398 211.2 36.7392 212.042 37.2398C212.884 37.7403 213.316 38.5821 213.316 39.7652C213.316 40.5388 213.089 41.1986 212.633 41.7673C212.178 42.3589 211.564 42.7912 210.768 43.1097C209.972 43.4282 209.061 43.5647 208.015 43.5647C206.377 43.5647 205.057 43.2235 204.056 42.4954C203.032 41.7673 202.486 40.789 202.441 39.5377H205.489Z" fill="#002D62"/>
<path d="M221.463 27.3883C221.804 27.7296 221.986 28.1619 221.986 28.6624C221.986 29.1857 221.804 29.618 221.463 29.9592C221.099 30.3233 220.667 30.4825 220.144 30.4825C219.597 30.4825 219.165 30.3233 218.801 29.9592C218.437 29.618 218.278 29.1857 218.278 28.6624C218.278 28.1619 218.437 27.7296 218.801 27.3883C219.165 27.047 219.597 26.865 220.144 26.865C220.667 26.865 221.099 27.047 221.463 27.3883ZM218.528 31.7339H221.736V43.4282H218.528V31.7339Z" fill="#002D62"/>
<path d="M223.585 34.4413H221.651V31.7339H223.585V28.4576H226.793V31.7339H229.455V34.4413H226.793V39.5604C226.793 39.97 226.861 40.2657 227.043 40.4478C227.225 40.6298 227.521 40.7208 227.93 40.7208H229.591V43.4282H226.929C224.7 43.4282 223.585 42.3134 223.585 40.0837V34.4413Z" fill="#002D62"/>
</svg>
