<svg width="40" height="31" viewBox="0 0 40 31" fill="none" xmlns="http://www.w3.org/2000/svg">
<path d="M10.1943 17.585H10.7781C11.2039 17.585 11.6252 17.5477 12.0378 17.4775C12.6567 14.7934 14.6034 12.6097 17.147 11.6638H13.6356C11.8601 13.1408 10.6069 15.2213 10.1921 17.5872L10.1943 17.585Z" fill="#002D62"/>
<path d="M21.5757 12.9367C22.5238 15.4803 24.7053 17.427 27.3894 18.0459H27.3915C27.4618 18.4607 27.4991 18.8821 27.4991 19.3078V19.8916C25.1332 19.4768 23.0527 18.2237 21.5757 16.4482V12.9367Z" fill="#002D62"/>
<path d="M29.8037 2.58662H29.8033L29.8037 2.58442V2.58662Z" fill="#002D62"/>
<path d="M29.8033 2.58662H29.2199C28.7941 2.58662 28.3727 2.62393 27.9579 2.69416C27.339 5.37824 25.3924 7.55974 22.8488 8.50783H26.3602C28.1352 7.03128 29.3881 4.95156 29.8033 2.58662Z" fill="#002D62"/>
<path fill-rule="evenodd" clip-rule="evenodd" d="M10.045 0.027648V0.863816C10.045 4.35553 11.8534 7.43026 14.5836 9.20575H9.94184C4.45956 9.20575 0 13.6653 0 19.1476C0 19.6414 0.399429 20.0408 0.893229 20.0408H10.778C14.2697 20.0408 17.3445 18.2324 19.1199 15.5022V20.144C19.1199 25.6262 23.5795 30.0858 29.0618 30.0858C29.5556 30.0858 29.955 29.6864 29.955 29.1926V19.3078C29.955 15.8161 28.1466 12.7414 25.4164 10.9659H30.0582C35.5404 10.9659 40 6.5063 40 1.02403C40 0.530227 39.6006 0.130798 39.1068 0.130798H29.222C25.7303 0.130798 22.6555 1.9392 20.8801 4.66937V0.027648C20.8801 -0.06777 20.8827 0.122428 20.8801 0.027648L19.0927 0.0276368C19.096 0.122343 19.0936 -0.0678416 19.0936 0.027648V8.97092C15.0159 8.5254 11.8314 5.06002 11.8314 0.863816V0.027648H10.045ZM1.83474 18.2565H10.778C14.9742 18.2565 18.4396 15.0721 18.8851 10.9944H9.94184C5.74564 10.9944 2.28026 14.1789 1.83474 18.2565ZM28.1707 28.2511V19.3078C28.1707 15.1116 24.9863 11.6462 20.9086 11.2007V20.144C20.9086 24.3402 24.0931 27.8055 28.1707 28.2511ZM21.1149 9.17941H30.0582C34.2544 9.17941 37.7197 5.99495 38.1653 1.91726H29.222C25.0258 1.91726 21.5604 5.10172 21.1149 9.17941Z" fill="#002D62"/>
<path d="M7.5299 8.81071C6.67618 9.01042 5.86415 9.31329 5.1026 9.70394C2.06079 8.00088 0 4.74838 0 1.02184C0 0.528035 0.399429 0.128605 0.893229 0.128605H9.37342V0.863819C9.37342 1.21716 9.39098 1.56831 9.4261 1.91506H1.83474C2.19247 5.17634 4.48151 7.86481 7.5299 8.81071Z" fill="#002D62"/>
<path d="M34.8952 10.4655C34.1336 10.8562 33.3216 11.159 32.4679 11.3587C35.5163 12.3046 37.8053 14.9931 38.163 18.2544H30.5717C30.6068 18.6011 30.6243 18.9523 30.6243 19.3056V20.0408H39.1045C39.5983 20.0408 39.9978 19.6414 39.9978 19.1476C39.9978 15.4211 37.937 12.1686 34.8952 10.4655Z" fill="#002D62"/>
<path d="M11.8313 28.2489C15.0926 27.8911 17.7811 25.6021 18.727 22.5537C18.9267 23.4074 19.2296 24.2195 19.6202 24.981C17.9172 28.0228 14.6647 30.0836 10.9381 30.0836C10.4443 30.0836 10.0449 29.6842 10.0449 29.1904V20.7102H10.7801C11.1334 20.7102 11.4846 20.6926 11.8313 20.6575V28.2489Z" fill="#002D62"/>
<path d="M12.5009 0.280022V0.863804C12.5009 1.28957 12.5382 1.71094 12.6084 2.12354C15.2925 2.74244 17.4762 4.68911 18.4221 7.23273V3.72126C16.9451 1.94577 14.8645 0.692619 12.4987 0.277827L12.5009 0.280022Z" fill="#002D62"/>
</svg>
