<svg width="24" height="24" viewBox="0 0 24 24" fill="none" xmlns="http://www.w3.org/2000/svg">
<path d="M11.7843 0.676575H11.7787C5.58175 0.676575 0.542465 5.71727 0.542465 11.9156C0.542465 14.3741 1.33482 16.6528 2.68209 18.503L1.28143 22.6783L5.60142 21.2973C7.37859 22.4746 9.49855 23.1546 11.7843 23.1546C17.9812 23.1546 23.0205 18.1125 23.0205 11.9156C23.0205 5.71867 17.9812 0.676575 11.7843 0.676575Z" fill="#4CAF50"/>
<path d="M18.324 16.5475C18.0528 17.3131 16.9767 17.9481 16.1183 18.1336C15.5311 18.2586 14.764 18.3583 12.1819 17.2878C8.879 15.9195 6.75202 12.5632 6.58624 12.3455C6.42749 12.1277 5.25161 10.5683 5.25161 8.95551C5.25161 7.34271 6.07065 6.55738 6.4008 6.22021C6.67194 5.94345 7.12009 5.81701 7.54998 5.81701C7.68907 5.81701 7.8141 5.82404 7.92649 5.82966C8.25664 5.84371 8.42241 5.86338 8.64017 6.38458C8.91131 7.03785 9.5716 8.65065 9.65027 8.81642C9.73035 8.9822 9.81043 9.20698 9.69804 9.42474C9.59267 9.64952 9.49995 9.74926 9.33418 9.94032C9.1684 10.1314 9.01105 10.2775 8.84528 10.4826C8.69355 10.661 8.52216 10.8521 8.71322 11.1822C8.90429 11.5054 9.56458 12.5829 10.5367 13.4483C11.7913 14.5652 12.8084 14.922 13.1723 15.0737C13.4434 15.1861 13.7666 15.1594 13.9646 14.9487C14.2161 14.6776 14.5266 14.228 14.8427 13.7855C15.0675 13.468 15.3513 13.4286 15.6491 13.541C15.9525 13.6464 17.5583 14.4401 17.8885 14.6045C18.2186 14.7703 18.4364 14.849 18.5164 14.988C18.5951 15.1271 18.5951 15.7804 18.324 16.5475Z" fill="#FAFAFA"/>
</svg>
