<svg width="435" height="327" viewBox="0 0 435 327" fill="none" xmlns="http://www.w3.org/2000/svg">
<path d="M110.801 191.13H117.146C121.774 191.13 126.354 190.724 130.838 189.961C137.565 160.788 158.723 137.054 186.37 126.773H148.204C128.906 142.826 115.286 165.439 110.777 191.154L110.801 191.13Z" fill="#002D62"/>
<path d="M234.504 140.608C244.809 168.254 268.519 189.412 297.692 196.139H297.716C298.48 200.648 298.885 205.227 298.885 209.855V216.2C273.171 211.692 250.558 198.071 234.504 178.774V140.608Z" fill="#002D62"/>
<path d="M323.933 28.1137H323.929L323.933 28.0899V28.1137Z" fill="#002D62"/>
<path d="M323.929 28.1137H317.588C312.961 28.1137 308.381 28.5193 303.872 29.2826C297.146 58.4556 275.988 82.1661 248.341 92.4709H286.507C305.799 76.4223 319.417 53.8181 323.929 28.1137Z" fill="#002D62"/>
<path fill-rule="evenodd" clip-rule="evenodd" d="M109.178 0.300504V9.38875C109.178 47.3399 128.834 80.7589 158.507 100.056H108.057C48.4706 100.056 0 148.527 0 208.113C0 213.481 4.34136 217.822 9.70843 217.822H117.145C155.096 217.822 188.515 198.166 207.813 168.493V218.943C207.813 278.529 256.284 327 315.87 327C321.237 327 325.578 322.659 325.578 317.292V209.855C325.578 171.904 305.923 138.485 276.249 119.187H326.7C386.286 119.187 434.757 70.7165 434.757 11.1301C434.757 5.76299 430.415 1.42163 425.048 1.42163H317.611C279.66 1.42163 246.241 21.077 226.944 50.751V0.300504C226.944 -0.736586 226.973 1.33066 226.944 0.300504L207.517 0.300382C207.553 1.32973 207.527 -0.737364 207.527 0.300504V97.5041C163.207 92.6618 128.595 54.9969 128.595 9.38875V0.300504H109.178ZM19.9416 198.429H117.145C162.753 198.429 200.418 163.817 205.261 119.497H108.057C62.4488 119.497 24.7839 154.109 19.9416 198.429ZM306.185 307.058V209.855C306.185 164.247 271.574 126.582 227.254 121.739V218.943C227.254 264.551 261.865 302.216 306.185 307.058ZM229.496 99.7702H326.7C372.308 99.7702 409.973 65.1586 414.815 20.8385H317.611C272.003 20.8385 234.338 55.4501 229.496 99.7702Z" fill="#002D62"/>
<path d="M81.8419 95.7628C72.5628 97.9335 63.7369 101.225 55.4597 105.471C22.3986 86.9608 0 51.6097 0 11.1062C0 5.73917 4.34136 1.3978 9.70843 1.3978H101.879V9.38877C101.879 13.2292 102.07 17.0458 102.451 20.8147H19.9416C23.8298 56.2612 48.7091 85.4819 81.8419 95.7628Z" fill="#002D62"/>
<path d="M379.272 113.749C370.995 117.995 362.169 121.286 352.89 123.457C386.023 133.738 410.902 162.959 414.791 198.405H332.281C332.662 202.174 332.853 205.991 332.853 209.831V217.822H425.024C430.391 217.822 434.732 213.481 434.732 208.114C434.732 167.61 412.334 132.259 379.272 113.749Z" fill="#002D62"/>
<path d="M128.594 307.035C164.04 303.146 193.261 278.267 203.542 245.134C205.713 254.413 209.005 263.239 213.25 271.517C194.74 304.578 159.389 326.976 118.885 326.976C113.518 326.976 109.177 322.635 109.177 317.268V225.097H117.168C121.008 225.097 124.825 224.907 128.594 224.525V307.035Z" fill="#002D62"/>
<path d="M135.871 3.04354V9.38861C135.871 14.0162 136.276 18.5961 137.04 23.0806C166.213 29.8073 189.947 50.9655 200.228 78.6119V40.4461C184.174 21.1485 161.561 7.52802 135.847 3.01968L135.871 3.04354Z" fill="#002D62"/>
</svg>
